<?xml version="1.0" standalone="no"?>
<!DOCTYPE svg PUBLIC "-//W3C//DTD SVG 20010904//EN"
 "http://www.w3.org/TR/2001/REC-SVG-20010904/DTD/svg10.dtd">
<svg version="1.0" xmlns="http://www.w3.org/2000/svg"
 width="700.000000pt" height="700.000000pt" viewBox="0 0 700.000000 700.000000"
 preserveAspectRatio="xMidYMid meet">
<metadata>
Created by potrace 1.14, written by Peter Selinger 2001-2017
</metadata>
<g transform="translate(0.000000,700.000000) scale(0.100000,-0.100000)"
fill="#000000" stroke="none">
<path d="M3478 5835 c-2 -1 -52 -5 -113 -8 -60 -4 -135 -11 -165 -16 -30 -6
-71 -13 -90 -16 -19 -3 -62 -13 -95 -22 -33 -8 -64 -16 -70 -18 -5 -1 -17 -5
-25 -8 -8 -3 -33 -11 -55 -18 -97 -29 -246 -97 -361 -165 -339 -198 -607 -493
-790 -867 -35 -71 -42 -78 -78 -88 -97 -26 -286 -123 -408 -208 -111 -79 -273
-237 -350 -342 -151 -205 -254 -450 -284 -679 -9 -75 -11 -264 -3 -325 8 -61
20 -136 23 -150 119 -499 440 -874 906 -1058 68 -27 200 -64 260 -73 19 -3 46
-7 60 -10 14 -2 66 -7 115 -10 l90 -6 -1 286 c-1 158 -4 289 -7 292 -3 3 -33
8 -66 11 -303 25 -573 209 -712 485 -84 168 -113 380 -75 543 13 54 21 78 38
125 107 281 372 512 673 586 6 2 56 11 113 22 57 11 104 21 106 23 2 2 23 58
46 124 93 264 197 438 363 606 182 187 447 326 712 375 107 19 352 27 450 13
608 -84 1095 -526 1234 -1121 29 -123 32 -153 36 -392 3 -120 6 -220 7 -221 2
-2 93 -5 203 -7 185 -4 205 -6 274 -31 170 -60 300 -191 363 -363 16 -44 22
-87 25 -169 3 -122 -11 -185 -63 -291 -38 -77 -151 -191 -234 -237 -109 -60
-161 -70 -373 -72 -103 -1 -190 -5 -193 -8 -4 -3 -6 -133 -6 -289 l0 -283 203
0 c112 0 229 4 259 8 381 54 721 309 886 663 91 195 131 453 100 647 -3 20 -9
54 -12 75 -11 69 -56 196 -100 286 -82 165 -202 308 -349 418 -87 65 -264 155
-361 183 -33 9 -61 22 -61 29 -1 11 -19 122 -27 161 -29 143 -118 386 -194
525 -35 65 -126 212 -149 240 -6 8 -41 51 -76 95 -176 219 -440 425 -708 553
-90 42 -251 104 -307 117 -9 3 -55 14 -102 25 -123 29 -200 40 -330 46 -63 3
-123 7 -132 8 -9 2 -18 3 -20 1z"/>
<path d="M2334 2628 l1 -583 290 0 290 0 1 583 0 582 -291 0 -292 0 1 -582z"/>
<path d="M4084 2628 l1 -583 291 -2 291 -2 0 585 0 584 -292 0 -292 0 1 -582z"/>
<path d="M3210 2043 l0 -583 30 0 c17 -1 127 -1 245 -1 118 0 235 0 260 1 l45
0 0 583 0 582 -290 0 -290 0 0 -582z"/>
<path d="M2333 1463 c0 -159 3 -290 7 -293 7 -4 454 -5 551 -1 l26 1 -1 290 0
290 -291 0 -291 0 -1 -287z"/>
<path d="M4084 1468 c1 -156 4 -287 8 -293 4 -6 111 -10 290 -10 l283 1 1 292
1 292 -292 0 -292 0 1 -282z"/>
<path d="M3215 1162 c-3 -3 -5 -134 -5 -292 l0 -286 288 0 287 1 3 291 2 291
-285 0 c-156 0 -287 -2 -290 -5z"/>
</g>
</svg>
